<!DOCTYPE svg PUBLIC "-//W3C//DTD SVG 1.1//EN" "http://www.w3.org/Graphics/SVG/1.1/DTD/svg11.dtd">
<!-- Uploaded to: SVG Repo, www.svgrepo.com, Transformed by: SVG Repo Mixer Tools -->
<svg fill="#000000" width="800px" height="800px" viewBox="0 -32 576 576" xmlns="http://www.w3.org/2000/svg">
<g id="SVGRepo_bgCarrier" stroke-width="0"/>
<g id="SVGRepo_tracerCarrier" stroke-linecap="round" stroke-linejoin="round"/>
<g id="SVGRepo_iconCarrier">
<path d="M384 64H192C85.961 64 0 149.961 0 256s85.961 192 192 192h192c106.039 0 192-85.961 192-192S490.039 64 384 64zM64 256c0-70.741 57.249-128 128-128 70.741 0 128 57.249 128 128 0 70.741-57.249 128-128 128-70.741 0-128-57.249-128-128zm320 128h-48.905c65.217-72.858 65.236-183.12 0-256H384c70.741 0 128 57.249 128 128 0 70.74-57.249 128-128 128z"/>
</g>
</svg>